<svg id="Layer_1" data-name="Layer 1" xmlns="http://www.w3.org/2000/svg" viewBox="0 0 152 102"><defs><style>.cls-1{fill:#58595b;}.cls-2{fill:#fff;}</style></defs><title>Logo</title><rect class="cls-1" width="152" height="102"/><polygon class="cls-2" points="53.36 91.76 52.4 88.43 51.45 91.76 50.81 91.76 49.54 87.52 50.21 87.52 51.16 90.93 52.15 87.52 52.66 87.52 53.65 90.94 54.6 87.52 55.27 87.52 53.99 91.76 53.36 91.76 53.36 91.76"/><path class="cls-2" d="M57.87,88.15L57,90.3h1.8l-0.89-2.15h0Zm0.35-.63L60,91.76H59.35L59,90.83H56.79l-0.39.93H55.71l1.8-4.24h0.72Z"/><polygon class="cls-2" points="61.11 91.76 61.11 87.52 61.72 87.52 61.72 91.76 61.11 91.76 61.11 91.76"/><polygon class="cls-2" points="66.02 91.76 64.36 89.88 63.95 90.33 63.95 91.76 63.34 91.76 63.34 87.52 63.95 87.52 63.95 89.64 65.86 87.52 66.61 87.52 64.75 89.53 66.77 91.76 66.02 91.76 66.02 91.76"/><polygon class="cls-2" points="67.92 91.76 67.92 87.52 68.53 87.52 68.53 91.76 67.92 91.76 67.92 91.76"/><polygon class="cls-2" points="72.83 91.76 71.16 89.88 70.75 90.33 70.75 91.76 70.14 91.76 70.14 87.52 70.75 87.52 70.75 89.64 72.67 87.52 73.42 87.52 71.56 89.53 73.58 91.76 72.83 91.76 72.83 91.76"/><polygon class="cls-2" points="74.72 91.76 74.72 87.52 75.33 87.52 75.33 91.76 74.72 91.76 74.72 91.76"/><path class="cls-2" d="M82.13,90.55a0.7,0.7,0,0,0-.76-0.69H80v1.37h1.35a0.67,0.67,0,0,0,.76-0.68h0ZM82,88.69A0.62,0.62,0,0,0,81.34,88H80v1.27h1.32A0.63,0.63,0,0,0,82,88.69h0Zm-2.64,3.07V87.52h2a1.11,1.11,0,0,1,1.26,1.09,1,1,0,0,1-.72,1,1.09,1.09,0,0,1,.82,1,1.15,1.15,0,0,1-1.31,1.15h-2Z"/><polygon class="cls-2" points="84.14 91.76 84.14 87.52 87.09 87.52 87.09 88.05 84.75 88.05 84.75 89.32 87.05 89.32 87.05 89.85 84.75 89.85 84.75 91.22 87.09 91.22 87.09 91.76 84.14 91.76 84.14 91.76"/><path class="cls-2" d="M90.17,88.15l-0.9,2.15h1.8l-0.89-2.15h0Zm0.35-.63,1.79,4.24H91.64l-0.39-.93H89.08l-0.39.93H88l1.8-4.24h0.72Z"/><path class="cls-2" d="M93.06,89.63a2.16,2.16,0,0,1,2.27-2.2,2,2,0,0,1,1.68.87l-0.49.27A1.45,1.45,0,0,0,95.32,88a1.68,1.68,0,0,0,0,3.36,1.45,1.45,0,0,0,1.19-.61L97,91a2,2,0,0,1-1.69.87,2.17,2.17,0,0,1-2.27-2.22h0Z"/><polygon class="cls-2" points="101.37 91.76 101.37 89.84 98.83 89.84 98.83 91.76 98.22 91.76 98.22 87.52 98.83 87.52 98.83 89.31 101.37 89.31 101.37 87.52 101.96 87.52 101.96 91.76 101.37 91.76 101.37 91.76"/><path class="cls-2" d="M76.11,42.22c-4.21,0-7-.05-7-0.05L68.5,39.9a62.71,62.71,0,0,1,7.61-.54,62.71,62.71,0,0,1,7.61.54l-0.59,2.27s-2.81.05-7,.05h0Zm10.74-8.53-0.16-.05a2.65,2.65,0,0,1-2.11,1l-0.05.11c0.49,0.49.38,1.57-.22,1.57a0.64,0.64,0,0,1-.59-0.59l-0.11-.05a7.92,7.92,0,0,0-.7.54,6,6,0,0,0,.11,1h0.11a0.49,0.49,0,0,1,.92.27,1,1,0,0,1-1.13,1,1.3,1.3,0,0,1-1.51-1.24,1.28,1.28,0,0,1,.81-1.19V36a3.25,3.25,0,0,1-.92-1.13H81.18a2.56,2.56,0,0,1-1.19.81V35.8a1.53,1.53,0,0,1,.49,1.13c0,0.7-.59,1.13-1.84,1.13-0.92,0-1.84-.27-1.84-1.19a0.7,0.7,0,0,1,.7-0.76,1,1,0,0,1,.81.43h0.11a4.29,4.29,0,0,1,.7-0.76V35.69a3.89,3.89,0,0,1-.7-0.81H78.32a1.13,1.13,0,0,1-1,.49,0.49,0.49,0,0,1-.54-0.49A1.24,1.24,0,0,1,77.89,34V33.91a3.34,3.34,0,0,1-1.73-1.73H76.05a3.35,3.35,0,0,1-1.73,1.73V34a1.24,1.24,0,0,1,1.08.86,0.49,0.49,0,0,1-.54.49,1.13,1.13,0,0,1-1-.49H73.79a3.91,3.91,0,0,1-.7.81V35.8a4.33,4.33,0,0,1,.7.76h0.11a1,1,0,0,1,.81-0.43,0.7,0.7,0,0,1,.7.76c0,0.92-.92,1.19-1.84,1.19-1.24,0-1.84-.43-1.84-1.13a1.53,1.53,0,0,1,.49-1.13V35.69A2.56,2.56,0,0,1,71,34.88H70.93A3.24,3.24,0,0,1,70,36v0.11a1.28,1.28,0,0,1,.81,1.19,1.3,1.3,0,0,1-1.51,1.24,1,1,0,0,1-1.13-1,0.49,0.49,0,0,1,.92-0.27H69.2a6,6,0,0,0,.11-1,7.92,7.92,0,0,0-.7-0.54l-0.11.05a0.64,0.64,0,0,1-.59.59c-0.59,0-.7-1.08-0.22-1.57l-0.05-.11a2.65,2.65,0,0,1-2.11-1l-0.16.05,2.27,5.18a0.58,0.58,0,0,0-.38.59,9.34,9.34,0,0,1,.86,2.92c0,0.49-.05.54-0.05,0.76a0.33,0.33,0,0,0,.38.32H83.77a0.33,0.33,0,0,0,.38-0.32c0-.22-0.05-0.27-0.05-0.76A9.34,9.34,0,0,1,85,39.47a0.58,0.58,0,0,0-.38-0.59l2.27-5.18h0Zm-17.55-18a0.44,0.44,0,0,0,.32.22,1.22,1.22,0,0,0,.43-0.76,0.76,0.76,0,0,0-.76.54h0ZM79.73,13.5l0.16,0.11a1.61,1.61,0,0,0,1-1.13,1,1,0,0,0-.22-0.59c-0.11,0-.11.22-0.11,0.32a0.38,0.38,0,0,1-.43.38A0.63,0.63,0,0,1,79.51,12a2.09,2.09,0,0,1,.16-0.65,0.05,0.05,0,0,0-.05-0.05,1,1,0,0,0-.92,1,1.45,1.45,0,0,0,1,1.24h0ZM67.9,32.12c2.54,0,2.48-2.92,2.48-3.89,0-4.37,1.3-5.45,4.32-6.86C77,20.3,79,19.87,79,17.71c0-.76-0.22-1.57-1.08-1.57a1.29,1.29,0,0,1,.32.86,1.86,1.86,0,0,1-.16.7,1.19,1.19,0,0,0-.22-0.7,10.77,10.77,0,0,0-.38,1.35,1.77,1.77,0,0,1-.86.65s-0.11.11,0.27,0.11a2,2,0,0,0,1.24-.38,1.16,1.16,0,0,1-1.08,1c-0.27,0-.7-0.05-1.08-0.05a3.47,3.47,0,0,0-2.75,1.35,3.6,3.6,0,0,1-2.11,1.35,1.6,1.6,0,0,1-.92-1.24c0-.43.76-0.16,1.35-0.76,1-1,1.35-1.19,2.38-1.19,0,0,.59,0,0.05-0.54l-1.67-1.57a0.83,0.83,0,0,0-.59-0.32,1.42,1.42,0,0,0-.81.49,3.71,3.71,0,0,0-1.62.43,0.93,0.93,0,0,1-.38.22,2,2,0,0,1-.38-1,5.39,5.39,0,0,1,.49-1,0.24,0.24,0,0,0-.16-0.22l-0.7.32s-0.38-.43.05-0.65c0,0,1.08-.59,3.13-1.57,0.11,0.59.27,0.7,0.76,0.65l-0.22.05-0.11.16a1.58,1.58,0,0,0,.81-0.11c0.27-.11.59-0.11,0.65-0.16a1,1,0,0,0,.22-0.27,4,4,0,0,0-.65.11,1,1,0,0,0,.49-0.49,0.19,0.19,0,0,0-.05-0.11,1.19,1.19,0,0,1-.43.05,0.36,0.36,0,0,1-.22-0.32c0-.11.11-0.22,0.49-0.22h0.27a0.84,0.84,0,0,0-.76-0.32,2.41,2.41,0,0,0-1,.27,0.89,0.89,0,0,1,.54-0.65,14.08,14.08,0,0,1,3-.27c1.94,0,3.4,1.67,3.67,1.67,0.11,0,.22-0.11.05-0.22a2,2,0,0,1-1.13-1.35c0-.16,0-1.19,2.21-1.57a2.73,2.73,0,0,1,1.3,1.94c0,0.92-1,1-1.13,1.4,2.54,0.16,4.43,3.51,4.43,5.18,0,3-2.86,4.26-4.64,4.64C82.53,22,83.5,20,83.5,18.68A4.7,4.7,0,0,0,81,14.9a5.1,5.1,0,0,1,1.4,3.51,3.63,3.63,0,0,1-1.19,2.81,2.46,2.46,0,0,0,.27-1.13,2.23,2.23,0,0,0-.05-0.49c-1,2.43-3.4,4.1-3.56,6.15a4.45,4.45,0,0,1-.22-1.4,4.24,4.24,0,0,1,1.08-2.81A5.24,5.24,0,0,0,76.16,26a5.12,5.12,0,0,0,.54,2.27,6,6,0,0,1,.05-1.94,7.23,7.23,0,0,0,3.67,5.56c-4.43,0-6.26-5.29-4.43-8.64-3.08.81-3.46,4-3.51,5.83a10.52,10.52,0,0,1-.27-2.32c0-3.29,2.75-4.16,4.8-5.07,3-1.35,4.27-2.43,4.27-4.37s-2.43-3.35-4.21-3L77.73,15a2.11,2.11,0,0,0,.27.22c1.89,1,2.16,2.05,2.16,2.7,0,1.73-1.94,2.65-3.35,3.24-4.53,1.94-5.34,2.81-5.34,5.61,0,2.05.59,5.29-1.57,5.56a1.72,1.72,0,0,0,.92.38,3.16,3.16,0,0,1-2.16.7A2.58,2.58,0,0,1,66,31.53a3.45,3.45,0,0,0,1.94.59h0Zm3.46-11.88a0.7,0.7,0,0,1-.54.22,1.19,1.19,0,0,1,0-.65,0.53,0.53,0,0,1,.54.43h0Zm-0.59-.7a1.14,1.14,0,0,1-1,.76,15.3,15.3,0,0,1-1.62-.49c-0.22,0-.32.05-0.43,0.05a0.14,0.14,0,0,1-.16-0.11,0.47,0.47,0,0,1,.54-0.32,6.21,6.21,0,0,1,1.08.27,1.46,1.46,0,0,0,1.4-.59,1.24,1.24,0,0,1,.86-0.32,1.71,1.71,0,0,1,.92.27,3.49,3.49,0,0,0-1.3.54c-0.16-.05-0.22-0.11-0.27-0.05h0Zm-1.13-1.62a2.74,2.74,0,0,1,.49-0.11,1.68,1.68,0,0,1,.05.92,0.59,0.59,0,0,1-.54-0.81h0Zm12.09-5.4c2,0.43,1.73,1.73,2.11,2.65a8.88,8.88,0,0,0-2-1.78,1.31,1.31,0,0,0-.11-0.86h0Zm2.54,10.2c0,2.27-2.91,2.54-2.91,4.75a9.14,9.14,0,0,1,.11,2,2.77,2.77,0,0,0,.65-1.13C82.1,30,83,32,85.18,32a2.37,2.37,0,0,0,1.24-.32,1.75,1.75,0,0,1-1.89,1.57c-2.27,0-4.32-1.89-4.32-5.4a3.48,3.48,0,0,1,.49-1.94,2.93,2.93,0,0,0-1.19,2.48,2.91,2.91,0,0,1-.43-1.46c0-2.7,3.29-1.73,5.18-4.16h0ZM84,34.18c2,0,3-1,3-2.59a2.55,2.55,0,0,0-.16-0.92,2.6,2.6,0,0,1-1.57.54,1.77,1.77,0,0,1-1.89-1.78c0-1.67,1.78-2.54,1.78-4.43A1.09,1.09,0,0,0,85,24.24a4.89,4.89,0,0,0,1.08-2.92,4.15,4.15,0,0,0-.81-2.48l0.86,0.43A6.83,6.83,0,0,0,85,16.85a1,1,0,0,0,.65.11,2.74,2.74,0,0,1-1.08-2.48c0-1.46-.32-2.27-3.13-2.75a4.59,4.59,0,0,0-1.46-1.57,16.14,16.14,0,0,0-1.94,1s-0.81.05-1.13,0.05A9.59,9.59,0,0,1,75.78,11a1.49,1.49,0,0,0-1.08.65,18.09,18.09,0,0,0-2.48.27c-0.54.11-.86,0.54-1.24,1.46l-2.65,1.46a1.08,1.08,0,0,0-.81.86A2.42,2.42,0,0,0,68,16.79c0.27,1.62.54,1.89,0.92,1.89a1.91,1.91,0,0,0,.32-0.05,3.06,3.06,0,0,1,.43.7c-0.43.22-1-.27-1.62-0.27a0.9,0.9,0,0,0-1,.86,0.22,0.22,0,0,0,.22.27c0.16,0,.32-0.05.7-0.05a13.34,13.34,0,0,0,1.62.43,1.72,1.72,0,0,1,.54,0c-0.38.27-.59,0.43-0.49,0.81a2.2,2.2,0,0,0,1.13,1.51,3.3,3.3,0,0,0,.76-0.16L71.25,23c-2.16,1.84-1.67,3.89-1.67,5.94,0,1.57-.43,2.54-1.67,2.54a3.87,3.87,0,0,1-2.81-1.57,4.33,4.33,0,0,0-.16,1.24,3.31,3.31,0,0,0,3.46,3.13A5.45,5.45,0,0,0,72.06,33a4.4,4.4,0,0,0,4-2.11c1.46,2.11,4.16,1.94,4.59,1.94A4.78,4.78,0,0,0,84,34.18h0Zm-9-4.59c0,1.67-1.4,2.43-2.86,2.43,1.89-2.05.43-5,2.27-7-0.16,1.73.59,3.35,0.59,4.53h0Zm-2-13.82h0.05c0.27,1,1.46,1.13,1.73,2.32l-0.05.05c-0.59-.86-1.4-1-1.73-1.4a1,1,0,0,1,0-1h0Zm5.51,25a1.45,1.45,0,0,1-.38.43,1.45,1.45,0,0,1-.38-0.43,1,1,0,0,1,.38-0.43,1,1,0,0,1,.38.43h0Zm4.16,0.11a1.46,1.46,0,0,1-.38.43A1.46,1.46,0,0,1,82,40.92a1,1,0,0,1,.38-0.43,1,1,0,0,1,.38.43h0Zm-1.4.76a0.2,0.2,0,0,0,.22-0.22V40.28a0.2,0.2,0,0,0-.22-0.22C80.7,40,79.67,40,79.24,40a0.26,0.26,0,0,0-.27.27v1.19a0.26,0.26,0,0,0,.27.27h2.11Zm-4.21.05a0.26,0.26,0,0,0,.27-0.27v-1.3a0.26,0.26,0,0,0-.27-0.27H75.08a0.25,0.25,0,0,0-.27.27v1.3a0.25,0.25,0,0,0,.27.27h2.05Zm-3.51-.92A1,1,0,0,1,74,40.38a1,1,0,0,1,.38.43,1.45,1.45,0,0,1-.38.43,1.46,1.46,0,0,1-.38-0.43h0Zm-4.16.11a1,1,0,0,1,.38-0.43,1,1,0,0,1,.38.43,1.46,1.46,0,0,1-.38.43,1.46,1.46,0,0,1-.38-0.43h0Zm1.4,0.76H73a0.25,0.25,0,0,0,.27-0.27V40.22A0.25,0.25,0,0,0,73,40c-0.43,0-1.46.05-2.11,0.11a0.2,0.2,0,0,0-.22.22v1.19a0.2,0.2,0,0,0,.22.22h0Zm4.7-.86a1.17,1.17,0,0,1,.54-0.59,1.38,1.38,0,0,1,.49.59,2.32,2.32,0,0,1-.49.54,1.71,1.71,0,0,1-.54-0.54h0Zm4.21,0a1.17,1.17,0,0,1,.54-0.59,1.38,1.38,0,0,1,.49.59,2.32,2.32,0,0,1-.49.54,1.71,1.71,0,0,1-.54-0.54h0Zm-8.37,0A1.17,1.17,0,0,1,72,40.22a1.37,1.37,0,0,1,.49.59,2.31,2.31,0,0,1-.49.54,1.71,1.71,0,0,1-.54-0.54h0Z"/><path class="cls-2" d="M142.78,60.54l-4.52-5.18h-3v0.41c0.92,0,1.05.12,1.05,0.9V61c0,1.55-.32,1.7-1.09,1.7V63.1H138V62.69c-0.89,0-1.17-.2-1.17-1.11V56.47l6,6.84h0.45V56.83a0.89,0.89,0,0,1,1-1.07V55.35h-2.8v0.41a1,1,0,0,1,1.24,1.05v3.72h0Z"/><path class="cls-2" d="M130.23,62.95c-1.45,0-2.11-1.3-2.11-3.72s0.66-3.72,2.11-3.72,2.11,1.3,2.11,3.72-0.66,3.72-2.11,3.72h0Zm0-7.81a4.09,4.09,0,1,0,4.22,4.08,4,4,0,0,0-4.22-4.08h0Z"/><path class="cls-2" d="M120.18,62.07c0,0.56-.18.62-1,0.62V63.1h3.89V62.69c-0.8,0-1-.06-1-0.62v-6a0.35,0.35,0,0,1,.41-0.41A3.25,3.25,0,0,1,125,57.52l0.3-.11-0.47-2.28h-0.32a1.62,1.62,0,0,1-.77.21h-5.12a1.28,1.28,0,0,1-.41-0.06,2,2,0,0,1-.36-0.15H117.5L117,57.42l0.3,0.11a3.25,3.25,0,0,1,2.44-1.81,0.35,0.35,0,0,1,.41.41v6h0Z"/><path class="cls-2" d="M110.85,62.07c0,0.56-.18.62-1,0.62V63.1h7.32l0.59-2.26h-0.36c-1.07,1.57-1.76,1.85-3.62,1.85-0.86,0-1-.15-1-0.54V56.38c0-.56.18-0.62,1-0.62V55.35h-3.89v0.41c0.8,0,1,.06,1,0.62v5.7h0Z"/><path class="cls-2" d="M103.92,59h-0.68V55.76h0.44c1.6,0,2,.93,2,1.63A1.54,1.54,0,0,1,103.92,59h0Zm4,2.91-1.28-2a1.18,1.18,0,0,0-1-.69v0c1.25-.08,2-0.72,2-1.69s-0.87-2.15-3.38-2.15h-3.89v0.41c0.8,0,1,.06,1,0.62v5.7c0,0.56-.18.62-1,0.62V63.1h3.89V62.69c-0.8,0-1-.06-1-0.62V59.36c0.81,0,1.1.11,1.31,0.5l1.81,3.24H109V62.69a1.13,1.13,0,0,1-1.14-.78h0Z"/><path class="cls-2" d="M92.35,60.66l1.54-3.25,1.6,3.25H92.35Zm5.83,1.19-3.27-6.3a0.51,0.51,0,0,0-.26-0.32,7.16,7.16,0,0,1-1.31,1.25,0.41,0.41,0,0,1,.24.35,0.77,0.77,0,0,1-.12.38l-2,4.08c-0.5,1.05-.8,1.4-1.54,1.4V63.1h2.8V62.69c-0.75,0-1.05-.21-1.05-0.51a2.33,2.33,0,0,1,.45-1.07H95.7a2.92,2.92,0,0,1,.57,1.25c0,0.26-.24.33-1.05,0.33V63.1h4.2V62.69a1.13,1.13,0,0,1-1.24-.84h0Z"/><path class="cls-2" d="M88.55,60.43c-0.68,1.4-1.7,2.47-3,2.47s-2.49-.9-2.49-3.68c0-2.55,1.05-3.68,2.56-3.68a3.32,3.32,0,0,1,2.91,2.11h0.32V55.23H88.6a0.73,0.73,0,0,1-.59.32,19.84,19.84,0,0,0-2.56-.41A4.15,4.15,0,0,0,81,59.36a4,4,0,0,0,4.26,3.95A12.27,12.27,0,0,0,88,62.78a0.65,0.65,0,0,1,.59.53h0.27V60.43H88.55Z"/><path class="cls-2" d="M64.67,63.1h6.75l0.81-2.34H71.91c-1.13,1.51-1.82,2-2.94,2h-1.9L72,55.56V55.35H65.33l-0.72,2.17h0.27a3.66,3.66,0,0,1,2.86-1.76h1.78l-4.85,7.07V63.1h0Z"/><path class="cls-2" d="M58.66,62.07c0,0.56-.18.62-1,0.62V63.1h3.89V62.69c-0.8,0-1-.06-1-0.62v-6A0.35,0.35,0,0,1,61,55.71a3.25,3.25,0,0,1,2.44,1.81l0.3-.11-0.47-2.28H63a1.63,1.63,0,0,1-.77.21H57.07a1.28,1.28,0,0,1-.41-0.06,2,2,0,0,1-.36-0.15H56l-0.47,2.28,0.3,0.11a3.25,3.25,0,0,1,2.44-1.81,0.35,0.35,0,0,1,.41.41v6h0Z"/><path class="cls-2" d="M51.64,62.07c0,0.56-.18.62-1,0.62V63.1h3.89V62.69c-0.8,0-1-.06-1-0.62v-5.7c0-.56.18-0.62,1-0.62V55.35H50.66v0.41c0.8,0,1,.06,1,0.62v5.7h0Z"/><path class="cls-2" d="M44.53,59H43.85V55.76h0.44c1.6,0,2,.93,2,1.63A1.54,1.54,0,0,1,44.53,59h0Zm4,2.91-1.28-2a1.18,1.18,0,0,0-1-.69v0c1.25-.08,2-0.72,2-1.69s-0.87-2.15-3.38-2.15H40.95v0.41c0.8,0,1,.06,1,0.62v5.7c0,0.56-.18.62-1,0.62V63.1h3.89V62.69c-0.8,0-1-.06-1-0.62V59.36c0.81,0,1.1.11,1.31,0.5L47,63.1h2.67V62.69a1.13,1.13,0,0,1-1.15-.78h0Z"/><path class="cls-2" d="M28.63,62.07c0,0.56-.18.62-1,0.62V63.1H34.8l0.6-2.26H35a3.3,3.3,0,0,1-3.32,1.85c-1,0-1.18-.15-1.18-0.47V59.29h0.51c1.4,0,2,.38,2.26,1.48h0.32V57.31H33.33c-0.32,1.15-.83,1.57-2.26,1.57H30.55V56.26c0-.44.14-0.5,0.71-0.5a4.2,4.2,0,0,1,3.68,1.72h0.32l-0.77-2.12H27.65v0.41c0.8,0,1,.06,1,0.62v5.7h0Z"/><path class="cls-2" d="M23.51,62.07c0,0.56-.18.62-1,0.62V63.1h3.89V62.69c-0.8,0-1-.06-1-0.62v-5.7c0-.56.18-0.62,1-0.62V55.35H22.53v0.41c0.8,0,1,.06,1,0.62v2.37H19.56V56.38c0-.56.18-0.62,1-0.62V55.35H16.65v0.41c0.8,0,1,.06,1,0.62v5.7c0,0.56-.18.62-1,0.62V63.1h3.89V62.69c-0.8,0-1-.06-1-0.62V59.29h3.95v2.79h0Z"/><path class="cls-2" d="M10.81,62.07c0,0.56-.18.62-1,0.62V63.1h3.89V62.69c-0.8,0-1-.06-1-0.62v-6a0.35,0.35,0,0,1,.41-0.41,3.25,3.25,0,0,1,2.44,1.81l0.3-.11-0.47-2.28H15.1a1.63,1.63,0,0,1-.77.21H9.21a1.28,1.28,0,0,1-.41-0.06,2,2,0,0,1-.36-0.15H8.12L7.66,57.42,8,57.52a3.25,3.25,0,0,1,2.44-1.81,0.35,0.35,0,0,1,.41.41v6h0Z"/><polygon class="cls-2" points="74.72 59.78 77.31 59.78 78.39 58.21 75.81 58.21 74.72 59.78 74.72 59.78 74.72 59.78"/><path class="cls-2" d="M37.05,71h0.68a1.53,1.53,0,0,0,1.74-1.61c0-.69-0.39-1.62-2-1.62H37.05V71h0Zm-1.92-2.62c0-.56-0.18-0.62-1-0.62V67.39H38c2.5,0,3.37,1.17,3.37,2.15s-0.75,1.61-2,1.68v0a1.18,1.18,0,0,1,1,.69l1.28,2a1.13,1.13,0,0,0,1.14.78v0.41H40.16l-1.8-3.23c-0.21-.39-0.5-0.5-1.31-0.5V74.1c0,0.56.18,0.62,1,.62v0.41H34.15V74.71c0.8,0,1-.06,1-0.62V68.41h0Z"/><path class="cls-2" d="M44.59,68.41c0-.56-0.18-0.62-1-0.62V67.39h6.83l0.77,2.12H50.89a4.19,4.19,0,0,0-3.67-1.71c-0.57,0-.71.06-0.71,0.5v2.62H47c1.43,0,1.94-.42,2.26-1.56H49.6v3.44H49.28c-0.23-1.1-.86-1.47-2.26-1.47H46.51v2.93c0,0.32.14,0.47,1.17,0.47A3.3,3.3,0,0,0,51,72.86h0.36l-0.6,2.25H43.61V74.71c0.8,0,1-.06,1-0.62V68.41h0Z"/><path class="cls-2" d="M57.78,69.92c-0.44-1.37-1.31-2.33-2.57-2.33a1.1,1.1,0,0,0-1.25,1c0,1.7,4.66,1.16,4.66,4.24,0,1.5-1.14,2.5-3,2.5a7.81,7.81,0,0,1-2.19-.41,0.7,0.7,0,0,0-.65.41H52.61V72.5h0.27a2.91,2.91,0,0,0,2.74,2.42,1.26,1.26,0,0,0,1.5-1.16c0-.54-0.42-1.26-2.21-1.82a2.87,2.87,0,0,1-2.3-2.5,2.38,2.38,0,0,1,2.65-2.27,7.37,7.37,0,0,1,2,.41,0.74,0.74,0,0,0,.56-0.41H58v2.74H57.78Z"/><path class="cls-2" d="M61,68.41c0-.56-0.18-0.62-1-0.62V67.39h3.88V67.8c-0.8,0-1,.06-1,0.62V74.1c0,0.56.18,0.62,1,.62v0.41H60.05V74.71c0.8,0,1-.06,1-0.62V68.41h0Z"/><path class="cls-2" d="M68.2,74.26c0,0.26.06,0.45,1.08,0.45a3,3,0,0,0,3-3.29c0-2.66-1.47-3.62-3.11-3.62-0.86,0-1,.21-1,0.66v5.8h0Zm-1.92-5.85c0-.56-0.18-0.62-1-0.62V67.39h4.31c2.65,0,4.78,1.46,4.78,3.86,0,2-1.8,3.86-4.48,3.86H65.29V74.71c0.8,0,1-.06,1-0.62V68.41h0Z"/><path class="cls-2" d="M76,68.41c0-.56-0.18-0.62-1-0.62V67.39h6.83l0.77,2.12H82.35a4.19,4.19,0,0,0-3.67-1.71c-0.57,0-.71.06-0.71,0.5v2.62h0.51c1.43,0,1.94-.42,2.26-1.56h0.32v3.44H80.74c-0.23-1.1-.86-1.47-2.26-1.47H78v2.93c0,0.32.14,0.47,1.17,0.47a3.29,3.29,0,0,0,3.31-1.85h0.36l-0.6,2.25H75.07V74.71c0.8,0,1-.06,1-0.62V68.41h0Z"/><path class="cls-2" d="M91.33,68.85A1,1,0,0,0,90.1,67.8V67.39h2.8V67.8a0.89,0.89,0,0,0-1,1.07v6.46H91.42l-6-6.83v5.1c0,0.92.29,1.11,1.17,1.11v0.41h-2.8V74.71c0.77,0,1.08-.15,1.08-1.7V68.7c0-.78-0.13-0.9-1.05-0.9V67.39h3l4.51,5.17V68.85h0Z"/><path class="cls-2" d="M101.47,72.46v2.87H101.2a0.65,0.65,0,0,0-.59-0.53,12.26,12.26,0,0,1-2.77.53,4,4,0,0,1-4.25-3.94,4.14,4.14,0,0,1,4.47-4.21,19.79,19.79,0,0,1,2.56.41,0.73,0.73,0,0,0,.59-0.32h0.27v2.42h-0.32a3.31,3.31,0,0,0-2.9-2.1c-1.5,0-2.56,1.13-2.56,3.67,0,2.77,1.31,3.67,2.48,3.67s2.3-1.07,3-2.47h0.32Z"/><path class="cls-2" d="M103.85,68.41c0-.56-0.18-0.62-1-0.62V67.39h6.82l0.77,2.12h-0.32a4.19,4.19,0,0,0-3.67-1.71c-0.57,0-.71.06-0.71,0.5v2.62h0.51c1.43,0,1.94-.42,2.25-1.56h0.32v3.44h-0.32c-0.23-1.1-.86-1.47-2.25-1.47h-0.51v2.93c0,0.32.13,0.47,1.17,0.47a3.29,3.29,0,0,0,3.31-1.85h0.36L110,75.12h-7.14V74.71c0.8,0,1-.06,1-0.62V68.41h0Z"/><path class="cls-2" d="M117,69.92c-0.44-1.37-1.31-2.33-2.57-2.33a1.1,1.1,0,0,0-1.25,1c0,1.7,4.66,1.16,4.66,4.24,0,1.5-1.14,2.5-3,2.5a7.81,7.81,0,0,1-2.19-.41,0.7,0.7,0,0,0-.65.41h-0.21V72.5h0.27a2.91,2.91,0,0,0,2.74,2.42,1.26,1.26,0,0,0,1.5-1.16c0-.54-0.42-1.26-2.21-1.82a2.87,2.87,0,0,1-2.3-2.5,2.38,2.38,0,0,1,2.65-2.27,7.38,7.38,0,0,1,2,.41,0.74,0.74,0,0,0,.56-0.41h0.27v2.74H117Z"/></svg>