<svg id="Layer_1" data-name="Layer 1" xmlns="http://www.w3.org/2000/svg" width="15" height="12.19" viewBox="0 0 15 12.19"><defs><style>.cls-1{fill:#37434a;}</style></defs><title>icon-twitter</title><path class="cls-1" d="M15,1.44a6.14,6.14,0,0,1-1.77.48A3.08,3.08,0,0,0,14.59.22a6.15,6.15,0,0,1-2,.75A3.08,3.08,0,0,0,7.39,3.78,8.73,8.73,0,0,1,1,.56,3.08,3.08,0,0,0,2,4.67,3.06,3.06,0,0,1,.6,4.29v0a3.08,3.08,0,0,0,2.47,3,3.1,3.1,0,0,1-.81.11,3.06,3.06,0,0,1-.58-.06A3.08,3.08,0,0,0,4.56,9.53,6.17,6.17,0,0,1,.73,10.85a6.35,6.35,0,0,1-.73,0,8.72,8.72,0,0,0,4.72,1.38,8.7,8.7,0,0,0,8.76-8.76c0-.13,0-.27,0-.4A6.27,6.27,0,0,0,15,1.44Z"/></svg>