<svg id="Layer_1" data-name="Layer 1" xmlns="http://www.w3.org/2000/svg" width="118" height="148.35" viewBox="0 0 118 148.35"><defs><style>.cls-1{fill:#b3282d;}.cls-2{fill:none;}.cls-3{fill:gray;}.cls-4{fill:#fff;}</style></defs><title>logo-sc</title><rect class="cls-1" x="0.07" width="117.86" height="91.95"/><path class="cls-2" d="M37.17,61.24a4.34,4.34,0,0,0,4.34-4.33,4.23,4.23,0,0,0-4.25-4.23A4.34,4.34,0,0,0,32.92,57a4.23,4.23,0,0,0,4.25,4.23Z"/><path class="cls-2" d="M92.37,60.29l.13-38L117.92,3.09V0h-8L81.64,21l-.17,38.45L55.78,78a5.53,5.53,0,0,1,.71,2.69,5.68,5.68,0,0,1-5.68,5.67,5.57,5.57,0,0,1-5.59-5.57A5.66,5.66,0,0,1,55,76.93L80.13,58.78l.17-38.44L107.68,0H92.42L64,20.52l-.06,29.13L6.06,91.95H69.44l-5.95-9.72Z"/><path class="cls-2" d="M50.81,85a4.35,4.35,0,0,0,4.34-4.33,4.23,4.23,0,0,0-4.25-4.23,4.35,4.35,0,0,0-4.34,4.33A4.23,4.23,0,0,0,50.81,85Z"/><path class="cls-2" d="M117.92,4.77,93.83,23l-.13,38L65.27,82.56,71,91.95H87.57l-4.77-8.27,26-21.26-.17-33.68a5.57,5.57,0,0,1-5-5.53,5.69,5.69,0,0,1,5.68-5.67A5.56,5.56,0,0,1,115,23.1a5.66,5.66,0,0,1-5,5.62L110.19,63,84.54,84l4.59,8h28.8Z"/><path class="cls-2" d="M111.84,26.61a4.33,4.33,0,0,0,1.8-3.51,4.23,4.23,0,0,0-4.25-4.23,4.35,4.35,0,0,0-4.34,4.33,4.19,4.19,0,0,0,.8,2.47l-.54.39.54-.39a4.23,4.23,0,0,0,3.45,1.76A4.32,4.32,0,0,0,111.84,26.61Z"/><polygon class="cls-2" points="35.87 11.16 51.19 0 0.07 0 0.07 24.67 23.03 9.77 35.87 11.16"/><path class="cls-2" d="M62.67,19.83,90.13,0H67.29L35.61,22.89,23.5,21.67.07,37.24V73.1L47.08,39l-.28-5.24A5.57,5.57,0,0,1,43,31.45l.54-.39-.54.39a5.55,5.55,0,0,1-1.05-3.26,5.69,5.69,0,0,1,5.68-5.67,5.57,5.57,0,0,1,5.6,5.57,5.65,5.65,0,0,1-5,5.62l.31,5.9L.07,74.76v9.43L32.43,59.93A5.55,5.55,0,0,1,31.58,57a5.68,5.68,0,0,1,5.68-5.66,5.57,5.57,0,0,1,5.59,5.57,5.68,5.68,0,0,1-5.68,5.67A5.58,5.58,0,0,1,33.26,61L.07,85.86v6.09H3.79L62.61,49Z"/><path class="cls-2" d="M50,31.6a4.33,4.33,0,0,0,1.8-3.51,4.23,4.23,0,0,0-4.26-4.23,4.35,4.35,0,0,0-4.34,4.33,4.2,4.2,0,0,0,.8,2.47h0a4.24,4.24,0,0,0,3.46,1.75A4.32,4.32,0,0,0,50,31.6Z"/><polygon class="cls-2" points="35.24 21.5 65 0 53.46 0 36.24 12.55 23.36 11.15 0.07 26.27 0.07 35.63 23.15 20.29 35.24 21.5"/><polygon class="cls-3" points="64.01 20.52 92.42 0 90.13 0 62.67 19.83 62.61 48.97 3.79 91.95 6.06 91.95 63.95 49.65 64.01 20.52"/><path class="cls-3" d="M80.13,58.78,55,76.93A4.75,4.75,0,0,1,55.78,78L81.47,59.46,81.64,21,109.92,0h-2.25L80.3,20.33Z"/><polygon class="cls-3" points="35.61 22.89 67.29 0 65 0 35.24 21.5 23.15 20.29 0.07 35.63 0.07 37.24 23.5 21.67 35.61 22.89"/><path class="cls-3" d="M48.14,33.71a4.71,4.71,0,0,1-1.34,0L47.08,39,.07,73.1v1.66L48.45,39.61Z"/><path class="cls-3" d="M48.09,32.85l0,.86a5.65,5.65,0,0,0,5-5.62,5.57,5.57,0,0,0-5.6-5.57,5.69,5.69,0,0,0-5.68,5.67A5.55,5.55,0,0,0,43,31.45l.54-.39-.54.39a5.57,5.57,0,0,0,3.84,2.26l0-.79ZM44,30.66h0a4.2,4.2,0,0,1-.8-2.47,4.35,4.35,0,0,1,4.34-4.33,4.23,4.23,0,0,1,4.26,4.23,4.34,4.34,0,0,1-4.34,4.33A4.24,4.24,0,0,1,44,30.66Z"/><path class="cls-3" d="M48.14,33.71l0-.86-1.34.07,0,.79a4.71,4.71,0,0,0,1.34,0Z"/><path class="cls-3" d="M54.42,77.35l.58-.42a5.6,5.6,0,0,0-4.11-1.79,5.69,5.69,0,0,0-5.68,5.67,5.57,5.57,0,0,0,1.05,3.26l.54-.39.54-.39a4.22,4.22,0,0,1-.8-2.48,4.35,4.35,0,0,1,4.34-4.33,4.23,4.23,0,0,1,4.25,4.23A4.35,4.35,0,0,1,50.81,85a4.24,4.24,0,0,1-3.45-1.75l-.54.39-.54.39a5.58,5.58,0,0,0,4.54,2.31,5.68,5.68,0,0,0,5.68-5.67A5.53,5.53,0,0,0,55.78,78l-.57.41Z"/><path class="cls-3" d="M55,76.93l-.58.42.79,1.09.57-.41A4.75,4.75,0,0,0,55,76.93Z"/><polygon class="cls-3" points="36.24 12.55 53.46 0 51.19 0 35.87 11.16 23.03 9.77 0.07 24.67 0.07 26.27 23.36 11.15 36.24 12.55"/><polygon class="cls-3" points="93.71 60.96 93.83 23 117.92 4.77 117.92 3.09 92.5 22.33 92.37 60.29 63.49 82.23 69.44 91.95 71.01 91.95 65.27 82.56 93.71 60.96"/><path class="cls-3" d="M110.19,63,110,28.72a5,5,0,0,1-1.34,0l.17,33.68-26,21.26,4.77,8.27h1.55l-4.59-8Z"/><path class="cls-3" d="M110,28.38v.33a5.66,5.66,0,0,0,5-5.62,5.56,5.56,0,0,0-5.59-5.57,5.69,5.69,0,0,0-5.68,5.67,5.57,5.57,0,0,0,5,5.53v-.34Zm-4.16-2.71-.54.39.54-.39a4.19,4.19,0,0,1-.8-2.47,4.35,4.35,0,0,1,4.34-4.33,4.23,4.23,0,0,1,4.25,4.23,4.35,4.35,0,0,1-4.34,4.33A4.23,4.23,0,0,1,105.86,25.68Z"/><path class="cls-3" d="M110,28.72v-.33h-1.34v.34a5,5,0,0,0,1.34,0Z"/><path class="cls-3" d="M32.63,60.27c-.08-.11-.14-.23-.21-.34L.07,84.18v1.67L33.26,61A5.55,5.55,0,0,1,32.63,60.27Z"/><path class="cls-3" d="M33.58,59.59l.14-.1a4.22,4.22,0,0,1-.8-2.48,4.34,4.34,0,0,1,4.34-4.33,4.23,4.23,0,0,1,4.25,4.23,4.34,4.34,0,0,1-4.34,4.33,4.23,4.23,0,0,1-3.45-1.75l-.14.1.55.74-.87.65a5.58,5.58,0,0,0,3.91,1.6,5.68,5.68,0,0,0,5.68-5.67,5.57,5.57,0,0,0-5.59-5.57A5.68,5.68,0,0,0,31.58,57a5.55,5.55,0,0,0,.85,2.92l.9-.67Z"/><path class="cls-3" d="M33.58,59.59l-.4.29-.54.39a5.55,5.55,0,0,0,.62.71l.87-.65Z"/><path class="cls-3" d="M33.18,59.88l.4-.29-.25-.33-.9.67c.07.11.13.23.21.34Z"/><path class="cls-4" d="M.3,118.13l2-3.08a11.12,11.12,0,0,0,6.49,2.44c2,0,3.08-.83,3.08-2.14v-.07c0-1.54-2.1-2.06-4.43-2.78-2.93-.83-6.19-2-6.19-5.82v-.08c0-3.75,3.11-6,7.05-6a13.74,13.74,0,0,1,7.28,2.25L13.81,106a11.49,11.49,0,0,0-5.59-1.88c-1.77,0-2.78.83-2.78,2v.08c0,1.43,2.14,2,4.47,2.78,2.89.9,6.15,2.21,6.15,5.78v.07c0,4.17-3.23,6.23-7.36,6.23A13.92,13.92,0,0,1,.3,118.13Z"/><path class="cls-4" d="M36.37,100.9h4.54v19.81H36.37Z"/><path class="cls-4" d="M42.33,110.88v-.07c0-5.67,4-10.32,9.68-10.32,6.3,0,9.49,5,9.49,10.66,0,.41,0,.83-.08,1.28H46.87a5.53,5.53,0,0,0,5.7,5,7.2,7.2,0,0,0,5.37-2.36l2.66,2.36a10,10,0,0,1-8.11,3.71A9.89,9.89,0,0,1,42.33,110.88ZM57,109.42c-.3-2.93-2-5.22-5-5.22-2.78,0-4.73,2.14-5.14,5.22Z"/><path class="cls-4" d="M62.65,100.9h4.54V104a7.13,7.13,0,0,1,6.19-3.49c4.46,0,7.05,3,7.05,7.62v12.61H75.89V109.46c0-3.08-1.54-4.84-4.24-4.84s-4.47,1.84-4.47,4.92v11.18H62.65Z"/><path class="cls-4" d="M91.93,117.23c-3.49,0-5.93-2.85-5.93-6.38v-.08c0-3.45,2.4-6.3,5.7-6.3a6.67,6.67,0,0,1,5.14,2.48l.17-.18a10.09,10.09,0,0,1,2.13-3.38,9.85,9.85,0,0,0-7.4-2.89,10.22,10.22,0,0,0-10.28,10.36v.07A10.11,10.11,0,0,0,91.7,121.16a9.8,9.8,0,0,0,7.39-3A9.63,9.63,0,0,1,97,114.84,6.91,6.91,0,0,1,91.93,117.23Z"/><path class="cls-4" d="M118,111.15c0-5.7-3.19-10.66-9.49-10.66a9.28,9.28,0,0,0-6.82,2.89,10.09,10.09,0,0,0-2.13,3.38,11.3,11.3,0,0,0-.74,4.05v.07a11.21,11.21,0,0,0,.7,4,9.65,9.65,0,0,0,2.12,3.36,10.64,10.64,0,0,0,15.45-.74l-2.66-2.36a7.2,7.2,0,0,1-5.37,2.36,5.53,5.53,0,0,1-5.7-5h14.56C118,112,118,111.56,118,111.15Zm-14.67-1.73c.41-3.08,2.36-5.22,5.14-5.22,3,0,4.73,2.29,5,5.22Z"/><path class="cls-4" d="M19.61,138v-.07c0-5.67,4-10.32,9.68-10.32,6.3,0,9.49,5,9.49,10.66,0,.41,0,.82-.08,1.27H24.15a5.53,5.53,0,0,0,5.7,5,7.19,7.19,0,0,0,5.37-2.36l2.67,2.36a10,10,0,0,1-8.11,3.72A9.89,9.89,0,0,1,19.61,138Zm14.67-1.46c-.3-2.93-2-5.22-5-5.22-2.78,0-4.73,2.14-5.14,5.22Z"/><path class="cls-4" d="M43,128H47.5v3.08a7.13,7.13,0,0,1,6.19-3.49c4.47,0,7.06,3,7.06,7.62v12.61H56.2V136.55c0-3.08-1.54-4.84-4.24-4.84s-4.47,1.84-4.47,4.92v11.18H43Z"/><path class="cls-4" d="M68.5,142.33V131.9H63.83V128H68.5v-3.71H73V128h5.33v3.9H73v9.72a2.16,2.16,0,0,0,2.44,2.48,6.13,6.13,0,0,0,2.81-.68v3.71a8,8,0,0,1-4.09,1C70.86,148.14,68.5,146.68,68.5,142.33Z"/><path class="cls-4" d="M80.54,138v-.07c0-5.67,4-10.32,9.68-10.32,6.3,0,9.49,5,9.49,10.66,0,.41,0,.82-.08,1.27H85.08a5.53,5.53,0,0,0,5.7,5,7.19,7.19,0,0,0,5.37-2.36l2.66,2.36a10,10,0,0,1-8.1,3.72A9.88,9.88,0,0,1,80.54,138Zm14.67-1.46c-.3-2.93-2-5.22-5-5.22-2.78,0-4.73,2.14-5.14,5.22Z"/><path class="cls-4" d="M102.88,128h4.54v4.46c1.24-3,6.13-5,9.62-4.84v4.8h-.26c-5.29,0-9.36,3.14-9.36,7v8.41h-4.54Z"/><path class="cls-4" d="M10.47,144.41c-3.49,0-5.93-2.85-5.93-6.38V138c0-3.45,2.4-6.3,5.7-6.3a6.66,6.66,0,0,1,5.14,2.48l.17-.19a10.15,10.15,0,0,1,2.13-3.38,9.85,9.85,0,0,0-7.4-2.89A10.22,10.22,0,0,0,0,138v.07a10.12,10.12,0,0,0,10.24,10.24,9.81,9.81,0,0,0,7.4-3A9.64,9.64,0,0,1,15.52,142,6.91,6.91,0,0,1,10.47,144.41Z"/><path class="cls-4" d="M27.59,117.23c-3.49,0-5.93-2.85-5.93-6.38v-.07c0-3.45,2.4-6.3,5.7-6.3a6.67,6.67,0,0,1,5.14,2.48l.17-.19a10.13,10.13,0,0,1,2.13-3.38,9.85,9.85,0,0,0-7.4-2.89,10.22,10.22,0,0,0-10.28,10.36v.07a10.12,10.12,0,0,0,10.25,10.24,9.81,9.81,0,0,0,7.39-3,9.66,9.66,0,0,1-2.12-3.36A6.91,6.91,0,0,1,27.59,117.23Z"/><path class="cls-4" d="M112.06,144.62h-1.13v-.35h2.66v.35h-1.13v3h-.39Z"/><path class="cls-4" d="M114.3,144.27h.39l1.23,1.84,1.23-1.84h.39v3.38h-.38v-2.74l-1.23,1.81h0l-1.23-1.81v2.73h-.37Z"/><path class="cls-4" d="M10.44,67.51l8.47-9.43c5.86,4.5,12,7.35,19.44,7.35,5.86,0,9.4-2.16,9.4-5.71v-.17c0-3.37-2.23-5.11-13.12-7.7C21.51,48.73,13,45.36,13,33.33v-.17c0-11,9.49-18.26,22.79-18.26A39.53,39.53,0,0,1,60,22.6l-7.44,10c-5.77-3.72-11.44-6-16.93-6S27.28,29,27.28,31.95v.17c0,4,2.79,5.28,14,8C54.54,43.28,62,47.69,62,58.25v.17c0,12-9.86,18.78-23.91,18.78A43.29,43.29,0,0,1,10.44,67.51Z"/><path class="cls-4" d="M66,55.62v-.16c0-12,9.83-21.81,23.61-21.81,8.49,0,13.78,2.66,18,7l-7.81,7.82C96.89,45.7,94,43.9,89.5,43.9c-6.39,0-10.92,5.24-10.92,11.41v.16C78.58,61.88,83,67,90,67c4.29,0,7.23-1.72,10.33-4.46l7.48,7c-4.37,4.45-9.41,7.66-18.4,7.66C75.89,77.27,66,67.58,66,55.62Z"/></svg>