<svg id="Layer_1" data-name="Layer 1" xmlns="http://www.w3.org/2000/svg" width="245" height="45.85" viewBox="0 0 245 45.85"><defs><style>.cls-1{fill:#fff;}</style></defs><title>logo-wexford</title><path class="cls-1" d="M0,.58H3.23l5,18.28h.07L13.72.58h3.55l5.39,18.28h.06l5-18.28H31L24.35,23.45H21.09L15.53,4.78h-.06L9.95,23.45H6.69Z"/><path class="cls-1" d="M38.82.58H53.58V3.49H41.92V10.3H52.77v2.91H41.92v7.33H54.16v2.91H38.82Z"/><path class="cls-1" d="M69.33,11.43,61.65.58h4l5.94,8.78L77.44.58h3.87L73.7,11.4l8.4,12H78l-6.56-9.92-6.59,9.92H61Z"/><path class="cls-1" d="M90.45.58h14.37V3.49H93.56v7.17h10.5v2.91H93.56v9.88h-3.1Z"/><path class="cls-1" d="M112.41,12a11.92,11.92,0,1,1,23.83,0,11.92,11.92,0,1,1-23.83,0ZM133,12c0-5-3.39-9.11-8.62-9.11S115.71,7,115.71,12s3.39,9.11,8.62,9.11S133,17,133,12Z"/><path class="cls-1" d="M145.55.58h8c5.85,0,7.33,3.52,7.33,6.39a6.13,6.13,0,0,1-5.62,6l6.49,10.43h-3.88L152.1,13.37h-3.46V23.45h-3.1Zm3.1,10.08h4.07c2.45,0,4.91-.58,4.91-3.68s-2.45-3.68-4.91-3.68h-4.07Z"/><path class="cls-1" d="M169.61.58h8c9.65,0,12,7.2,12,11.43,0,5.85-4.36,11.43-12.53,11.43h-7.46Zm3.1,20h3.91c5.23,0,9.69-2.87,9.69-8.53,0-2.91-1.52-8.53-8.94-8.53h-4.65Z"/><path class="cls-1" d="M94.41,39.4V35.59h1.77V39.4H100v1.77H96.18V45H94.41V41.17H90.6V39.4Z"/><path class="cls-1" d="M1.91,43a3.06,3.06,0,0,0,2.6,1.32,2.27,2.27,0,0,0,2.44-2c0-2.82-6-1.07-6-5.86C.9,35,2.12,33,5.06,33a4.24,4.24,0,0,1,3.53,1.4L7.24,35.59a2.57,2.57,0,0,0-2.18-1.07c-1.84,0-2.39,1.11-2.39,1.87,0,3.1,6,1.25,6,5.66,0,2.37-1.91,3.79-4.26,3.79a4.7,4.7,0,0,1-3.91-1.7Z"/><path class="cls-1" d="M22,35.92a3.77,3.77,0,0,0-3-1.4c-2.76,0-4.57,2.2-4.57,5A4.51,4.51,0,0,0,19,44.29a3.78,3.78,0,0,0,3.2-1.65l1.4,1.06A5.71,5.71,0,0,1,19,45.85a6.31,6.31,0,0,1-6.31-6.34A6.21,6.21,0,0,1,19.06,33a5.38,5.38,0,0,1,4.3,1.91Z"/><path class="cls-1" d="M27.88,33.27h1.66V45.54H27.88Z"/><path class="cls-1" d="M34.94,33.27h7.92v1.56H36.61v3.66h5.82V40H36.61V44h6.57v1.56H34.94Z"/><path class="cls-1" d="M47.78,33.27H50l6.76,10.08h0V33.27h1.66V45.54H56.3L49.48,35.46h0V45.54H47.78Z"/><path class="cls-1" d="M72.36,35.92a3.78,3.78,0,0,0-3-1.4c-2.75,0-4.57,2.2-4.57,5a4.51,4.51,0,0,0,4.57,4.78,3.78,3.78,0,0,0,3.21-1.65L74,43.7a5.7,5.7,0,0,1-4.64,2.15,6.31,6.31,0,0,1-6.3-6.34A6.21,6.21,0,0,1,69.45,33a5.38,5.38,0,0,1,4.3,1.91Z"/><path class="cls-1" d="M78.27,33.27h7.92v1.56H79.93v3.66h5.82V40H79.93V44H86.5v1.56H78.27Z"/><path class="cls-1" d="M107.46,34.83h-3.95V33.27h9.56v1.56h-4V45.54h-1.66Z"/><path class="cls-1" d="M117.09,33.27H125v1.56h-6.25v3.66h5.82V40h-5.82V44h6.56v1.56h-8.23Z"/><path class="cls-1" d="M138.47,35.92a3.77,3.77,0,0,0-3-1.4c-2.75,0-4.57,2.2-4.57,5a4.51,4.51,0,0,0,4.57,4.78,3.78,3.78,0,0,0,3.2-1.65l1.4,1.06a5.7,5.7,0,0,1-4.64,2.15,6.31,6.31,0,0,1-6.31-6.34A6.21,6.21,0,0,1,135.55,33a5.38,5.38,0,0,1,4.3,1.91Z"/><path class="cls-1" d="M144.37,33.27H146v5.09h6.36V33.27h1.66V45.54h-1.66V39.93H146v5.61h-1.66Z"/><path class="cls-1" d="M159.46,33.27h2.18l6.76,10.08h0V33.27h1.66V45.54H168l-6.83-10.08h0V45.54h-1.66Z"/><path class="cls-1" d="M174.74,39.4a6.39,6.39,0,1,1,12.79,0,6.39,6.39,0,1,1-12.79,0Zm11,0a4.63,4.63,0,1,0-9.25,0,4.63,4.63,0,1,0,9.25,0Z"/><path class="cls-1" d="M192.17,33.27h1.66V44h5.63v1.56h-7.29Z"/><path class="cls-1" d="M202.65,39.4a6.39,6.39,0,1,1,12.79,0,6.39,6.39,0,1,1-12.79,0Zm11,0a4.63,4.63,0,1,0-9.25,0,4.63,4.63,0,1,0,9.25,0Z"/><path class="cls-1" d="M230.52,38.68v6a10,10,0,0,1-4.64,1.12,6.23,6.23,0,0,1-6.57-6.44A6.24,6.24,0,0,1,225.7,33a5.9,5.9,0,0,1,4.57,1.59l-1.18,1.26a4.76,4.76,0,0,0-8,3.59,4.74,4.74,0,0,0,4.77,4.89,6.47,6.47,0,0,0,3-.65V40.24h-2.72V38.68Z"/><path class="cls-1" d="M238.7,40.31l-4.64-7h2.13l3.35,5.39L243,33.27h2l-4.64,7v5.23H238.7Z"/></svg>